TexturaLiberaEx.sfdir
StartChar: quotedbl
Encoding: 34 34 2
Width: 600
Flags: W
HStem: 344 302
LayerCount: 2
Back
SplineSet
390 600 m 25
 450 540 l 1
 450 480 l 25
 360 390 l 1049
150 600 m 25
 210 540 l 1
 210 480 l 25
 120 390 l 1049
EndSplineSet
Fore
SplineSet
104 575 m 1
 175 646 l 1
 256 565 l 1
 256 505 l 1
 95 344 l 1
 74 365 l 1
 164 455 l 1
 164 515 l 1
 104 575 l 1
344 575 m 1
 415 646 l 1
 496 565 l 1
 496 505 l 1
 335 344 l 1
 314 365 l 1
 404 455 l 1
 404 515 l 1
 344 575 l 1
EndSplineSet
EndChar
StartChar: numbersign
Encoding: 35 35 3
Width: 840
Flags: W
HStem: -196 21G<15 55 255 295> 154 92<85 200 316 440 556 755> 354 92<85 313 429 553 669 755>
LayerCount: 2
Back
SplineSet
300 -150 m 25
 780 700 l 1049
60 -150 m 25
 540 700 l 1049
60 200 m 25
 780 200 l 1049
60 400 m 25
 780 400 l 1049
EndSplineSet
Fore
SplineSet
14 375 m 1
 85 446 l 1
 365 446 l 1
 494 675 l 1
 565 746 l 1
 586 725 l 1
 429 446 l 1
 605 446 l 1
 734 675 l 1
 805 746 l 1
 826 725 l 1
 669 446 l 1
 805 446 l 1
 826 425 l 1
 755 354 l 1
 617 354 l 1
 556 246 l 1
 805 246 l 1
 826 225 l 1
 755 154 l 1
 504 154 l 1
 346 -125 l 1
 275 -196 l 1
 254 -175 l 1
 440 154 l 1
 264 154 l 1
 106 -125 l 1
 35 -196 l 1
 14 -175 l 1
 200 154 l 1
 35 154 l 1
 14 175 l 1
 85 246 l 1
 252 246 l 1
 313 354 l 1
 35 354 l 1
 14 375 l 1
316 246 m 1
 492 246 l 1
 553 354 l 1
 377 354 l 1
 316 246 l 1
EndSplineSet
EndChar
StartChar: plus
Encoding: 43 43 11
Width: 720
Flags: W
HStem: 254 92<145 314 406 575> 526 20G<365 405>
VStem: 314 92<125 254 346 475>
LayerCount: 2
Back
SplineSet
360 500 m 25
 360 100 l 1049
120 300 m 25
 600 300 l 1049
EndSplineSet
Fore
SplineSet
74 275 m 1
 145 346 l 1
 314 346 l 1
 314 475 l 1
 385 546 l 1
 406 525 l 1
 406 346 l 1
 625 346 l 1
 646 325 l 1
 575 254 l 1
 406 254 l 1
 406 125 l 1
 335 54 l 1
 314 75 l 1
 314 254 l 1
 95 254 l 1
 74 275 l 1
EndSplineSet
EndChar
StartChar: comma
Encoding: 44 44 12
Width: 360
Flags: W
HStem: -196 302
VStem: 74 182
LayerCount: 2
Back
SplineSet
150 60 m 25
 210 0 l 1
 210 -60 l 25
 120 -150 l 1049
EndSplineSet
Fore
SplineSet
104 35 m 1
 175 106 l 1
 256 25 l 1
 256 -35 l 1
 95 -196 l 1
 74 -175 l 1
 164 -85 l 1
 164 -25 l 1
 104 35 l 1
EndSplineSet
EndChar
StartChar: two
Encoding: 50 50 18
Width: 480
Flags: W
HStem: -46 21G<75 167 365.5 386> 4 92<205.576 330.899> 426 20G<181 313> 426 20G<181 313>
LayerCount: 2
Back
SplineSet
120 350 m 1
 180 400 l 1
 240 400 l 1
 360 350 l 1
 360 275 l 1
 120 75 l 25
 120 0 l 1
 120 0 196 50 300 50 c 3
 342 50 390 0 391 0 c 1025
EndSplineSet
Fore
SplineSet
74 325 m 1xe0
 145 396 l 1
 205 446 l 1
 265 446 l 1
 385 396 l 1
 406 375 l 1
 406 300 l 1
 335 229 l 1
 166 88 l 1
 166 58 l 1
 196 73 254 96 325 96 c 0
 367 96 415 46 416 46 c 2
 437 25 l 1
 366 -46 l 2
 365 -46 317 4 275 4 c 0
 171 4 95 -46 95 -46 c 1
 74 -25 l 1
 74 50 l 1
 145 121 l 1
 314 262 l 1
 314 313 l 1
 215 354 l 1
 155 354 l 1
 95 304 l 1
 74 325 l 1xe0
EndSplineSet
Substitution2: "Subscript forms-1" two.inferior
Substitution2: "Superscript forms-1" two.superior
EndChar
StartChar: eight
Encoding: 56 56 24
Width: 480
Flags: W
HStem: -46 21G<195 235> 626 20G<245 285>
VStem: 74 92<99.5798 180 420 455> 314 92<145 230 470 500.42>
LayerCount: 2
Back
SplineSet
240 600 m 25
 120 480 l 25
 120 385 l 25
 240 325 l 25
 360 445 l 25
 360 480 l 25
 240 600 l 25
240 325 m 25
 120 205 l 25
 120 120 l 25
 240 0 l 25
 360 120 l 25
 360 265 l 25
 240 325 l 25
EndSplineSet
Fore
SplineSet
215 554 m 1
 166 505 l 1
 166 420 l 1
 265 371 l 2
 265 371 310 416 314 420 c 2
 314 455 l 2
 314 508 244 525 215 554 c 1
74 455 m 1
 265 646 l 1
 406 505 l 1
 406 470 l 1
 293 357 l 1
 385 311 l 1
 406 290 l 1
 406 145 l 1
 215 -46 l 1
 74 95 l 1
 74 180 l 1
 187 293 l 1
 95 339 l 1
 74 360 l 1
 74 455 l 1
215 279 m 1
 166 230 l 1
 166 145 l 2
 166 92 236 75 265 46 c 1
 314 95 l 1
 314 230 l 1
 215 279 l 1
EndSplineSet
Substitution2: "Subscript forms-1" eight.inferior
Substitution2: "Superscript forms-1" eight.superior
EndChar
StartChar: equal
Encoding: 61 61 29
Width: 720
Flags: W
HStem: 154 92<145 575> 354 92<145 575>
LayerCount: 2
Back
SplineSet
120 200 m 25
 600 200 l 1049
120 400 m 25
 600 400 l 1049
EndSplineSet
Fore
SplineSet
74 375 m 1
 145 446 l 1
 625 446 l 1
 646 425 l 1
 575 354 l 1
 95 354 l 1
 74 375 l 1
74 175 m 1
 145 246 l 1
 625 246 l 1
 646 225 l 1
 575 154 l 1
 95 154 l 1
 74 175 l 1
EndSplineSet
EndChar
StartChar: D
Encoding: 68 68 36
Width: 840
Flags: W
HStem: -46 21G<15 50 407 595> 4 92<120.289 225 255 409.318> 504 21G<15 54> 554 92<115.988 198.032> 554 67<255.605 276>
VStem: 225 30<96 530> 344 92<175 515> 674 92<146 439>
AnchorPoint: "blwmark" 420 0 basechar 0
AnchorPoint: "abvmark" 480 700 basechar 0
LayerCount: 2
Back
SplineSet
60 550 m 1
 60 550 101 600 149 600 c 3
 192 600 214 575 240 575 c 3
 274 575 300 600 301 600 c 1025
240 550 m 1
 240 75 l 1025
390 150 m 1
 390 540 l 1
 450 600 l 1
 720 475 l 1
 720 121.200195312 l 1
 600 0 l 17
 600 0 419 50 180 50 c 3
 97 50 60 0 60 0 c 1033
EndSplineSet
Fore
SplineSet
365 104 m 1xef
 344 125 l 1
 344 515 l 1
 475 646 l 1
 745 521 l 1
 766 500 l 1
 766 146 l 1
 646 25 l 1
 575 -46 l 1
 575 -46 394 4 155 4 c 0
 101 4 67 -17 50 -31 c 2
 35 -46 l 1
 14 -25 l 2
 14 -25 16 -22 20 -18 c 2
 21 -18 l 2
 91 53 l 2
 105 67 142 96 205 96 c 0
 212 96 218 96 225 96 c 1
 225 530 l 2
 222 530 218 529 215 529 c 0
 189 529 167 554 124 554 c 0
 96 554 71 537 54 522 c 2
 35 504 l 1
 14 525 l 1
 14 525 17 529 22 534 c 2
 93 605 l 2
 94 606 l 0
 109 621 140 646 174 646 c 0xf7
 217 646 239 621 265 621 c 0xef
 299 621 325 646 326 646 c 2xf7
 347 625 l 1
 276 554 l 2
 275 554 268 547 255 540 c 1
 255 95 l 1
 461 89 614 49 624 46 c 1
 674 96 l 1
 674 439 l 1
 436 549 l 1
 436 175 l 1
 365 104 l 1xef
EndSplineSet
EndChar
StartChar: S
Encoding: 83 83 51
Width: 840
Flags: W
HStem: 4 92<152.59 402.295> 504 92<401.501 649.653> 626 20G<241 385 673 765>
VStem: 674 92<125 220>
AnchorPoint: "blwmark" 420 0 basechar 0
AnchorPoint: "abvmark" 420 700 basechar 0
LayerCount: 2
Back
SplineSet
660 525 m 25
 148 100 l 1049
540 169 m 1
 120 290 l 9
 180 375 l 1049
720 600 m 1
 720 600 617 550 540 550 c 3
 455 550 240 600 240 600 c 1
 120 500 l 1
 120 440 l 1
 720 260 l 1
 720 100 l 1
 600 0 l 1
 600 0 324 50 240 50 c 3
 152 50 60 0 60 0 c 1025
EndSplineSet
Fore
SplineSet
586 194 m 1
 515 123 l 1
 286 189 l 1
 145 72 l 1
 179 84 222 96 265 96 c 0
 349 96 625 46 625 46 c 1
 674 87 l 1
 674 220 l 1
 417 298 l 1
 381 268 l 1
 565 215 l 1
 586 194 l 1
706 550 m 1
 635 479 l 1
 511 376 l 1
 745 306 l 1
 766 285 l 1
 766 125 l 1
 695 54 l 1
 575 -46 l 1
 575 -46 299 4 215 4 c 0
 127 4 35 -46 35 -46 c 1
 14 -25 l 1
 85 46 l 1
 85 46 96 53 116 61 c 1
 102 75 l 1
 173 146 l 1
 240 202 l 1
 95 244 l 1
 74 265 l 1
 134 350 l 1
 159 375 l 1
 95 394 l 1
 74 415 l 1
 74 475 l 1
 145 546 l 1
 265 646 l 1
 265 646 480 596 565 596 c 0
 642 596 745 646 745 646 c 1
 766 625 l 1
 698 557 l 1
 706 550 l 1
200 363 m 1
 175 327 l 1
 335 281 l 1
 372 311 l 1
 200 363 l 1
634 529 m 1
 599 516 554 504 515 504 c 0
 430 504 215 554 215 554 c 1
 166 513 l 1
 166 480 l 1
 466 390 l 1
 634 529 l 1
EndSplineSet
EndChar
StartChar: bracketleft
Encoding: 91 91 59
Width: 360
Flags: W
HStem: -196 92<166 275> 654 92<166 275>
VStem: 74 92<-104 654>
LayerCount: 2
Back
SplineSet
300 700 m 25
 120 700 l 25
 120 -150 l 25
 300 -150 l 1033
EndSplineSet
Fore
SplineSet
346 725 m 1
 275 654 l 1
 166 654 l 1
 166 -104 l 1
 325 -104 l 1
 346 -125 l 1
 275 -196 l 1
 95 -196 l 1
 74 -175 l 1
 74 675 l 1
 145 746 l 1
 325 746 l 1
 346 725 l 1
EndSplineSet
EndChar
StartChar: w
Encoding: 119 119 87
Width: 720
Flags: W
HStem: -46 21G<195 235 435 475> 426 20G<95 135 335 375> 426 20G<95 135 335 375 630.5 651>
VStem: 74 92<99.5798 335> 314 92<99.5798 335> 494 92<438.511 499.5> 554 92<145 345>
AnchorPoint: "blwmark" 360 0 basechar 0
LayerCount: 2
Back
SplineSet
390 340 m 25
 330 400 l 1049
360 370 m 25
 360 120 l 1
 480 0 l 25
 600 120 l 1
 600 370 l 17
 600 370 540 423 540 472 c 8
 540 521 604 550 606 550 c 1033
150 340 m 25
 90 400 l 1049
120 370 m 25
 120 120 l 1
 240 0 l 25
 360 120 l 1025
EndSplineSet
Fore
SplineSet
145 416 m 1xda
 166 395 l 1
 196 365 l 1
 166 335 l 1
 166 145 l 2
 166 92 236 75 265 46 c 1
 314 95 l 1
 314 345 l 1
 284 375 l 1
 355 446 l 1
 385 416 l 1
 406 395 l 1
 436 365 l 1
 406 335 l 1
 406 145 l 2
 406 92 476 75 505 46 c 1
 554 95 l 1
 554 345 l 1xda
 546 353 l 2
 530 369 494 409 494 447 c 0
 494 467 504 484 517 497 c 2
 588 567 l 2
 607 585 630 596 631 596 c 2
 652 575 l 1
 588 510 l 2
 587 506 586 502 586 497 c 0xdc
 586 464 612 430 630 410 c 2
 646 395 l 1
 646 145 l 1
 455 -46 l 1
 335 74 l 1
 215 -46 l 1
 74 95 l 1
 74 345 l 1
 44 375 l 1
 115 446 l 1
 145 416 l 1xda
EndSplineSet
Substitution2: "Dotless forms-1" w.alt
EndChar
StartChar: currency
Encoding: 164 164 207
Width: 600
Flags: W
HStem: 526 20G<275 329.921>
VStem: 74 92<254 325> 434 92<275 346>
LayerCount: 2
Back
SplineSet
540 0 m 25
 420 125 l 1049
60 0 m 25
 180 125 l 1049
540 600 m 25
 420 475 l 1049
60 600 m 25
 180 475 l 1049
270 500 m 25
 120 350 l 25
 120 220 l 25
 330 100 l 25
 480 250 l 25
 480 380 l 25
 270 500 l 25
EndSplineSet
Fore
SplineSet
245 454 m 1
 166 375 l 1
 166 254 l 1
 355 146 l 2
 355 146 427 218 434 225 c 1
 434 346 l 1
 245 454 l 1
74 325 m 1
 295 546 l 1
 405 483 l 1
 494 575 l 1
 565 646 l 1
 586 625 l 1
 466 500 l 1
 433 467 l 1
 505 426 l 1
 526 405 l 1
 526 275 l 1
 305 54 l 1
 195 117 l 1
 106 25 l 1
 35 -46 l 1
 14 -25 l 1
 134 100 l 1
 167 133 l 1
 95 174 l 1
 74 195 l 1
 74 325 l 1
85 646 m 1
 106 625 l 1
 226 500 l 1
 155 429 l 1
 134 450 l 1
 14 575 l 1
 85 646 l 1
515 -46 m 1
 494 -25 l 1
 374 100 l 1
 445 171 l 1
 466 150 l 1
 586 25 l 1
 515 -46 l 1
EndSplineSet
EndChar
StartChar: macron
Encoding: 175 175 227
Width: 480
Flags: W
HStem: 504 92<115 365>
LayerCount: 2
Back
SplineSet
90 550 m 1
 390 550 l 1049
EndSplineSet
Fore
SplineSet
44 525 m 1
 115 596 l 1
 415 596 l 1
 436 575 l 1
 365 504 l 1
 65 504 l 1
 44 525 l 1
EndSplineSet
EndChar
StartChar: acute
Encoding: 180 180 99
Width: 480
Flags: W
HStem: 479 267
VStem: 134 242
LayerCount: 2
Back
SplineSet
330 700 m 17
 330 600 180 525 180 525 c 1049
EndSplineSet
Fore
SplineSet
355 746 m 1
 376 725 l 1
 376 685 352 649 323 620 c 2
 253 549 l 2
 252 549 l 2
 208 506 155 479 155 479 c 2
 134 500 l 1
 205 571 l 1
 205 571 231 584 261 606 c 1
 274 626 284 650 284 675 c 1
 355 746 l 1
EndSplineSet
EndChar
StartChar: guillemotright
Encoding: 187 187 216
Width: 660
Flags: W
LayerCount: 2
Back
SplineSet
390 325 m 17
 390 325 416.080078124 295.744140624 450 275 c 0
 564 207 600 200 600 200 c 1
 600 200 523 174 420 100 c 0
 394.849609376 81.732421875 360 50 360 50 c 1033
90 325 m 17
 90 325 116.080078125 295.744140624 150 275 c 0
 264 207 300 200 300 200 c 1
 300 200 223 174 120 100 c 0
 94.849609375 81.732421875 60 50 60 50 c 1033
EndSplineSet
Fore
SplineSet
115 371 m 1
 131 354 l 2
 142 344 158 332 175 321 c 0
 248 278 289 259 309 251 c 0
 320 247 325 246 325 246 c 1
 346 225 l 1
 275 154 l 1
 275 154 272 153 265 150 c 0
 241 140 176 112 95 54 c 0
 70 36 35 4 35 4 c 1
 14 25 l 1
 85 96 l 1
 85 96 120 128 145 146 c 0
 166 161 186 174 204 185 c 1
 183 196 157 210 125 229 c 0
 102 243 83 261 73 271 c 2
 52 292 l 2
 44 300 l 1
 115 371 l 1
415 371 m 1
 431 354 l 2
 442 344 458 332 475 321 c 0
 548 278 589 259 609 251 c 0
 620 247 625 246 625 246 c 1
 646 225 l 1
 575 154 l 1
 575 154 572 153 565 150 c 0
 541 140 476 112 395 54 c 0
 370 36 335 4 335 4 c 1
 314 25 l 1
 385 96 l 1
 385 96 420 128 445 146 c 0
 466 161 486 174 504 185 c 1
 483 196 457 210 425 229 c 0
 402 243 383 261 373 271 c 2
 352 292 l 2
 344 300 l 1
 415 371 l 1
EndSplineSet
EndChar
StartChar: Eth
Encoding: 208 208 180
Width: 840
Flags: W
HStem: -46 21G<15 50 407 598.762> 4 92<120.289 225 255 409.318> 278 92<185.656 225 255 342.595> 504 21G<15 54> 554 92<115.988 198.032> 554 67<255.605 276>
VStem: 225 30<96 274 371 530> 344 92<175 261.768 360 525> 674 92<126 439>
AnchorPoint: "blwmark" 420 0 basechar 0
AnchorPoint: "abvmark" 480 700 basechar 0
LayerCount: 2
Back
SplineSet
60 550 m 1
 60 550 101 600 149 600 c 3
 192 600 214 575 240 575 c 3
 274 575 300 600 301 600 c 1025
240 550 m 1
 240 75 l 1025
390 150 m 1
 390 550 l 1
 450 600 l 1
 720 475 l 1
 720 101 l 1
 600 0 l 17
 600 0 419 50 180 50 c 3
 97 50 60 0 60 0 c 1033
120 275 m 17
 120 275 168 325 210 325 c 27
 305 325 355 300 450 300 c 27
 492 300 540 350 540 350 c 1033
EndSplineSet
Fore
SplineSet
95 229 m 1xfb80
 74 250 l 1
 74 250 74 250 75 251 c 2
 146 322 l 2
 153 329 189 364 225 370 c 1
 225 530 l 2
 222 530 218 529 215 529 c 0
 189 529 167 554 124 554 c 0
 96 554 71 537 54 522 c 2
 35 504 l 1
 14 525 l 1
 14 525 17 529 22 534 c 2
 93 605 l 2
 94 606 l 0
 109 621 140 646 174 646 c 0xfb80
 217 646 239 621 265 621 c 0xf780
 299 621 325 646 326 646 c 2xfb80
 347 625 l 1
 276 554 l 2xf780
 275 554 268 547 255 540 c 1
 255 371 l 1
 289 370 317 365 344 360 c 1
 344 525 l 1
 415 596 l 1
 475 646 l 1
 745 521 l 1
 766 500 l 1
 766 126 l 1
 695 55 l 1
 575 -46 l 1
 575 -46 394 4 155 4 c 0
 101 4 67 -17 50 -31 c 2
 35 -46 l 1
 14 -25 l 2
 14 -25 16 -22 20 -18 c 2
 21 -18 l 2
 91 53 l 2
 105 67 142 96 205 96 c 0
 212 96 218 96 225 96 c 1
 225 278 l 1
 213 279 199 279 185 279 c 0
 148 279 108 241 98 231 c 2
 95 229 l 1xfb80
365 104 m 1
 344 125 l 1
 344 260 l 1
 314 264 286 270 255 274 c 1
 255 95 l 1
 469 89 625 46 625 46 c 2
 674 87 l 1
 674 439 l 1
 436 549 l 1
 436 347 l 1
 448 346 461 346 475 346 c 0
 512 346 552 384 562 394 c 2
 565 396 l 1
 586 375 l 1
 586 375 586 375 585 374 c 2
 514 303 l 2
 507 296 471 261 436 255 c 1
 436 175 l 1
 365 104 l 1
EndSplineSet
EndChar
StartChar: multiply
Encoding: 215 215 223
Width: 720
Flags: W
HStem: 526 20G<125 169 601 645>
LayerCount: 2
Back
SplineSet
600 500 m 25
 120 100 l 1049
120 500 m 25
 600 100 l 1049
EndSplineSet
Fore
SplineSet
74 475 m 1
 145 546 l 1
 385 346 l 1
 625 546 l 1
 646 525 l 1
 575 454 l 1
 415 321 l 1
 625 146 l 1
 646 125 l 1
 575 54 l 1
 335 254 l 1
 95 54 l 1
 74 75 l 1
 145 146 l 1
 305 279 l 1
 95 454 l 1
 74 475 l 1
EndSplineSet
EndChar
StartChar: divide
Encoding: 247 247 224
Width: 720
Flags: W
HStem: 254 92<145 575> 551 20G<335 375>
LayerCount: 2
Back
SplineSet
330 135 m 25
 390 75 l 1049
120 300 m 25
 600 300 l 1049
330 525 m 25
 390 465 l 1049
EndSplineSet
Fore
SplineSet
284 500 m 1
 355 571 l 1
 436 490 l 1
 365 419 l 1
 284 500 l 1
74 275 m 1
 145 346 l 1
 625 346 l 1
 646 325 l 1
 575 254 l 1
 95 254 l 1
 74 275 l 1
284 110 m 1
 355 181 l 1
 436 100 l 1
 365 29 l 1
 284 110 l 1
EndSplineSet
EndChar
StartChar: thorn
Encoding: 254 254 179
Width: 480
Flags: W
HStem: -196 21G<75 115> 426 20G<245 285> 426 20G<245 285> 651 20G<95 134.512>
VStem: 74 92<-125 -10 105 305 347 560> 314 92<145 300.42>
AnchorPoint: "abvmark" 240 700 basechar 0
LayerCount: 2
Back
SplineSet
60 0 m 1
 60 0 115 60 150 60 c 0
 185 60 240 0 240 0 c 9
 360 120 l 1
 360 280 l 25
 240 400 l 1
 120 280 l 1049
90 625 m 25
 150 565 l 1049
120 595 m 1
 120 -150 l 1025
EndSplineSet
Fore
SplineSet
44 600 m 1xdc
 115 671 l 1
 155 630 l 1
 166 620 l 1
 196 590 l 1
 166 560 l 1
 166 347 l 1
 265 446 l 1
 406 305 l 1
 406 145 l 1
 215 -46 l 1
 200 -30 l 2
 191 -22 179 -12 166 -3 c 1
 166 -125 l 1
 95 -196 l 1
 74 -175 l 1
 74 -10 l 1
 65 -17 57 -24 51 -30 c 2
 35 -46 l 1
 14 -25 l 1
 14 -25 16 -22 21 -17 c 2
 74 35 l 1
 74 255 l 1
 74 570 l 1
 44 600 l 1xdc
166 305 m 1
 166 105 l 2
 169 106 172 106 175 106 c 0
 202 106 241 70 257 54 c 2
 265 46 l 1
 314 95 l 1
 314 255 l 2
 314 308 244 325 215 354 c 1
 166 305 l 1
EndSplineSet
EndChar
StartChar: dotlessi
Encoding: 305 305 97
Width: 240
Flags: W
HStem: 426 20G<95 135> 426 20G<95 135>
VStem: 74 92<65 335>
AnchorPoint: "blwmark" 120 0 basechar 0
AnchorPoint: "abvmark" 120 500 basechar 0
LayerCount: 2
Back
SplineSet
90 60 m 25
 150 0 l 25
 210 60 l 1049
150 340 m 25
 90 400 l 25
 30 340 l 1049
120 370 m 9
 120 30 l 1025
EndSplineSet
Fore
SplineSet
166 395 m 1xa0
 196 365 l 1
 166 335 l 1
 166 55 l 1
 175 46 l 1
 235 106 l 1
 256 85 l 1
 125 -46 l 1
 44 35 l 1
 74 65 l 1
 74 345 l 1
 65 354 l 1
 5 294 l 1
 -16 315 l 1
 115 446 l 1
 145 416 l 1
 166 395 l 1xa0
EndSplineSet
EndChar
StartChar: dotaccent
Encoding: 729 729 269
Width: 480
Flags: W
HStem: 504 152
VStem: 164 152
LayerCount: 2
Back
SplineSet
210 610 m 25
 270 550 l 1049
EndSplineSet
Fore
SplineSet
164 585 m 1
 235 656 l 1
 316 575 l 1
 245 504 l 1
 164 585 l 1
EndSplineSet
EndChar
StartChar: endash
Encoding: 8211 8211 257
Width: 480
Flags: W
HStem: 154 92<85 395>
LayerCount: 2
Back
SplineSet
60 200 m 25
 420 200 l 1049
EndSplineSet
Fore
SplineSet
14 175 m 1
 85 246 l 1
 445 246 l 1
 466 225 l 1
 395 154 l 1
 35 154 l 1
 14 175 l 1
EndSplineSet
EndChar
StartChar: quoteright
Encoding: 8217 8217 255
Width: 360
Flags: W
HStem: 354 302
VStem: 74 182
LayerCount: 2
Back
SplineSet
150 610 m 25
 210 550 l 1
 210 490 l 25
 120 400 l 1049
EndSplineSet
Fore
SplineSet
104 585 m 1
 175 656 l 1
 256 575 l 1
 256 515 l 1
 95 354 l 1
 74 375 l 1
 164 465 l 1
 164 525 l 1
 104 585 l 1
EndSplineSet
EndChar
StartChar: Euro
Encoding: 8364 8364 264
Width: 660
Flags: W
HStem: 179 92<85 134 226 395> 329 92<85 134 262 455> 479 21G<505 565>
VStem: 134 92<137 179 271 329>
LayerCount: 2
Back
SplineSet
60 225 m 25
 420 225 l 1049
60 375 m 25
 480 375 l 1049
570 525 m 9
 420 600 l 25
 180 360 l 25
 180 100 l 25
 420 0 l 25
 600 180 l 1041
EndSplineSet
Fore
SplineSet
616 550 m 1
 545 479 l 1
 395 554 l 2
 394 554 312 471 262 421 c 1
 505 421 l 1
 526 400 l 1
 455 329 l 1
 226 329 l 1
 226 271 l 1
 445 271 l 1
 466 250 l 1
 395 179 l 1
 226 179 l 1
 226 137 l 1
 445 46 l 2
 446 46 545 146 554 155 c 2
 625 226 l 1
 646 205 l 1
 395 -46 l 1
 155 54 l 1
 134 75 l 1
 134 179 l 1
 35 179 l 1
 14 200 l 1
 85 271 l 1
 134 271 l 1
 134 329 l 1
 35 329 l 1
 14 350 l 1
 85 421 l 1
 220 421 l 1
 445 646 l 1
 595 571 l 1
 616 550 l 1
EndSplineSet
EndChar
StartChar: FleuronRight
Encoding: 10087 10087 956
Width: 960
Flags: W
HStem: 526 20G<185 229>
LayerCount: 2
Back
SplineSet
60 150 m 25
 90 200 l 25
 390 300 l 1049
210 0 m 25
 180 25 l 25
 210 475 l 25
 180 500 l 1049
900 350 m 1
 900 350 746 25 540 25 c 27
 449 25 360 74 360 150 c 27
 360 212 510 250 510 250 c 1
 510 250 360 288 360 350 c 27
 360 405 421 450 480 450 c 3
 568 450 607 386 660 325 c 8
 695 285 691 225 750 225 c 3
 800 225 870 325 870 325 c 1025
EndSplineSet
Fore
SplineSet
925 396 m 1
 946 375 l 1
 946 375 941 364 932 347 c 0
 909 304 859 221 791 153 c 2
 720 82 l 2
 663 25 592 -21 515 -21 c 0
 457 -21 401 -1 367 33 c 2
 345 54 l 1
 326 73 314 97 314 125 c 0
 314 138 321 151 332 162 c 2
 403 233 l 2
 404 234 l 1
 391 241 378 248 367 256 c 1
 365 254 l 1
 237 211 l 1
 226 53 l 1
 235 46 l 1
 256 25 l 1
 185 -46 l 1
 155 -21 l 1
 134 0 l 1
 146 181 l 1
 95 164 l 1
 35 104 l 1
 14 125 l 1
 44 175 l 1
 115 246 l 1
 151 258 l 1
 164 447 l 1
 155 454 l 1
 134 475 l 1
 205 546 l 1
 235 521 l 1
 256 500 l 1
 242 288 l 1
 316 313 l 1
 315 317 314 321 314 325 c 0
 314 348 325 370 342 387 c 2
 413 458 l 2
 437 481 471 496 505 496 c 0
 557 496 591 474 622 443 c 2
 643 422 l 1
 644 422 l 1
 644 421 l 2
 665 400 684 375 706 350 c 0
 726 328 733 298 746 277 c 1
 754 273 763 271 775 271 c 0
 787 271 801 278 813 286 c 0
 820 295 824 300 824 300 c 2
 895 371 l 1
 897 368 l 1
 925 396 l 1
EndSplineSet
EndChar
StartChar: llslst
Encoding: 11805 11805 905
Width: 360
Flags: W
HStem: -196 21G<15 55>
VStem: 14 332
LayerCount: 2
Back
SplineSet
60 -150 m 25
 300 100 l 1049
EndSplineSet
Fore
SplineSet
35 -196 m 1
 14 -175 l 1
 254 75 l 1
 325 146 l 1
 346 125 l 1
 106 -125 l 1
 35 -196 l 1
EndSplineSet
EndChar
StartChar: bracketbottomright
Encoding: 11813 11813 925
Width: 360
Flags: W
HStem: -196 92<85 194>
VStem: 194 92<-104 275>
LayerCount: 2
Back
SplineSet
240 300 m 1
 240 -150 l 9
 60 -150 l 1033
EndSplineSet
Fore
SplineSet
265 346 m 1
 286 325 l 1
 286 -125 l 1
 215 -196 l 1
 35 -196 l 1
 14 -175 l 1
 85 -104 l 1
 194 -104 l 1
 194 275 l 1
 265 346 l 1
EndSplineSet
EndChar
StartChar: a_o
Encoding: 42805 42805 341
Width: 720
Flags: W
HStem: 179 92<237.369 314> 426 20G<215 355 485 525> 426 20G<215 355 485 525>
VStem: 314 92<125 179 271 305> 554 92<145 300.42>
AnchorPoint: "blwmark" 360 0 basechar 0
AnchorPoint: "abvmark" 360 500 basechar 0
LayerCount: 2
Back
SplineSet
150 220 m 17
 120 310 l 1
 210 400 l 1
 360 375 l 1
 360 150 l 9
 210 0 l 1
 120 90 l 1
 120 160 l 1
 210 250 l 1
 210 250 232.928594192 225 300 225 c 3
 360 225 l 1033
480 400 m 25
 360 280 l 25
 360 120 l 25
 480 0 l 25
 600 120 l 25
 600 280 l 25
 480 400 l 25
EndSplineSet
Fore
SplineSet
119 180 m 1xd8
 104 195 l 1
 74 285 l 1
 235 446 l 1
 385 421 l 1
 406 400 l 1
 406 347 l 1
 505 446 l 1
 646 305 l 1
 646 145 l 1
 455 -46 l 1
 320 89 l 1
 185 -46 l 1
 74 65 l 1
 74 135 l 1
 119 180 l 1xd8
193 254 m 1
 235 296 l 1
 235 295 l 2
 239 291 261 273 314 271 c 1
 314 333 l 1
 185 354 l 1
 166 335 l 1
 193 254 l 1
406 175 m 1
 406 145 l 2
 406 92 476 75 505 46 c 1
 554 95 l 1
 554 255 l 2
 554 308 484 325 455 354 c 1
 406 305 l 1
 406 175 l 1
314 125 m 1
 314 179 l 1
 275 179 l 2
 212 179 189 201 186 204 c 2
 185 204 l 1
 166 185 l 1
 166 115 l 1
 235 46 l 1
 314 125 l 1
EndSplineSet
LCarets2: 1 360 
Ligature2: "Historic ligatures-1" a o
EndChar
StartChar: a_y
Encoding: 42813 42813 346
Width: 720
Flags: W
HStem: -246 92<480.899 537.5> -196 92<357.486 417.562> 179 92<237.369 314> 426 20G<215 355 575 615> 426 20G<215 355 575 615>
VStem: 314 92<145 179 271 333> 554 92<-125 53 95 335>
AnchorPoint: "abvmark" 360 500 basechar 0
LayerCount: 2
Back
SplineSet
360 150 m 9
 210 0 l 1
 120 90 l 1
 120 160 l 1
 210 250 l 1
 210 250 232.928594192 225 300 225 c 3
 360 225 l 1033
630 340 m 25
 570 400 l 1049
300 -200 m 17
 300 -200 344 -150 390 -150 c 8
 415 -150 483 -200 510 -200 c 24
 536 -200 600 -150 600 -150 c 1
 600 370 l 1025
600 120 m 9
 480 0 l 25
 360 120 l 1
 360 375 l 17
 210 400 l 1
 120 310 l 1
 150 220 l 1033
EndSplineSet
Fore
SplineSet
275 -246 m 1xa6
 254 -225 l 1
 254 -225 256 -222 259 -219 c 2
 330 -149 l 2
 330 -148 l 0
 344 -134 379 -104 415 -104 c 0x66
 440 -104 508 -154 535 -154 c 0xa6
 540 -154 548 -152 554 -149 c 1
 554 53 l 1
 455 -46 l 1
 320 89 l 1
 185 -46 l 1
 74 65 l 1
 74 135 l 1
 119 180 l 1
 104 195 l 1
 74 285 l 1
 235 446 l 1
 385 421 l 1
 406 400 l 1
 406 250 l 1
 406 175 l 1
 406 145 l 1
 505 46 l 1
 554 95 l 1
 554 345 l 1
 524 375 l 1
 595 446 l 1
 625 416 l 1
 646 395 l 1
 676 365 l 1
 646 335 l 1
 646 145 l 1
 646 -125 l 1
 575 -196 l 1x76
 575 -196 511 -246 485 -246 c 0xa6
 458 -246 390 -196 365 -196 c 0x66
 333 -196 303 -219 287 -234 c 2
 275 -246 l 1xa6
314 125 m 1
 314 179 l 1
 275 179 l 2
 212 179 189 201 186 204 c 2
 185 204 l 1
 166 185 l 1
 166 115 l 1
 235 46 l 1
 314 125 l 1
314 271 m 1
 314 333 l 1
 185 354 l 2
 185 354 168 337 166 335 c 2
 193 254 l 1
 235 296 l 1
 235 295 l 2
 239 291 261 273 314 271 c 1
EndSplineSet
LCarets2: 1 360 
Ligature2: "Historic ligatures-1" a y
EndChar
StartChar: obiit
Encoding: 42827 42827 866
Width: 480
Flags: W
HStem: 179 92<55 74 166 312 406 425> 426 20G<245 285> 426 20G<245 285>
VStem: 74 92<99.5798 179> 314 92<145 179>
LayerCount: 2
Back
SplineSet
30 225 m 25
 450 225 l 1049
240 400 m 25
 120 280 l 25
 120 120 l 25
 240 0 l 25
 360 120 l 25
 360 280 l 25
 240 400 l 25
EndSplineSet
Fore
SplineSet
215 354 m 1x98
 166 305 l 1
 166 271 l 1
 312 271 l 1
 300 312 241 328 215 354 c 1x98
-16 200 m 1
 55 271 l 1
 90 271 l 1
 265 446 l 1xd8
 406 305 l 1
 406 271 l 1
 475 271 l 1
 496 250 l 1
 425 179 l 1
 406 179 l 1
 406 145 l 1
 215 -46 l 1
 74 95 l 1
 74 179 l 1
 5 179 l 1
 -16 200 l 1
166 179 m 1
 166 145 l 2
 166 92 236 75 265 46 c 1
 314 95 l 1
 314 179 l 1
 166 179 l 1
EndSplineSet
EndChar
StartChar: psquirrel
Encoding: 42837 42837 870
Width: 600
Flags: W
HStem: -196 21G<195 235> 4 92<87 191.832> 426 20G<35 75 215 255 365 405> 426 20G<35 75 215 255 365 405>
VStem: 44 92<153.456 303.157> 194 92<-125 -19 92 305> 434 92<145 255>
AnchorPoint: "abvmark" 360 500 basechar 0
LayerCount: 2
Back
SplineSet
240 280 m 25
 360 400 l 1
 480 280 l 25
 480 120 l 1
 360 0 l 1
 360 0 358 50 30 50 c 1
 30 50 90 156 90 200 c 3
 90 332 30 400 30 400 c 1033
210 400 m 25
 270 340 l 1049
240 370 m 1
 240 -150 l 1025
EndSplineSet
Fore
SplineSet
265 416 m 1xee
 286 395 l 1
 310 371 l 1
 385 446 l 1
 526 305 l 1
 526 145 l 1
 335 -46 l 1
 322 -33 l 2
 315 -29 303 -24 286 -19 c 1
 286 -125 l 1
 215 -196 l 1
 194 -175 l 1
 194 -4 l 1
 148 1 86 4 5 4 c 1
 -16 25 l 1
 -16 25 44 131 44 175 c 0
 44 307 -16 375 -16 375 c 1
 55 446 l 1
 76 425 l 1
 76 425 136 357 136 225 c 0
 136 193 104 128 87 96 c 1
 128 96 164 94 194 92 c 1
 194 255 l 1
 194 345 l 1
 164 375 l 1
 235 446 l 1
 265 416 l 1xee
286 305 m 1
 286 83 l 1
 350 73 373 61 381 53 c 2
 386 47 l 1
 434 95 l 1
 434 255 l 1
 335 354 l 1
 286 305 l 1
EndSplineSet
EndChar
StartChar: qslash
Encoding: 42841 42841 872
Width: 480
Flags: W
HStem: -196 21G<165 205 315 355> 426 20G<245 285 364.556 405> 426 20G<245 285 364.556 405>
VStem: 74 92<145 255> 314 92<-125 -67 -25 25 95 325>
AnchorPoint: "abvmark" 270 500 basechar 0
LayerCount: 2
Back
SplineSet
360 120 m 9
 240 0 l 25
 120 120 l 25
 120 280 l 25
 240 400 l 1
 240 400 264 352 300 352 c 24
 336 352 360 400 360 400 c 9
 360 -150 l 1049
450 90 m 25
 210 -150 l 1049
EndSplineSet
Fore
SplineSet
475 136 m 1xd8
 496 115 l 1
 406 25 l 1
 406 -125 l 1
 335 -196 l 1
 314 -175 l 1
 314 -67 l 1
 185 -196 l 1
 164 -175 l 1
 314 -25 l 1
 314 53 l 1
 215 -46 l 1
 74 95 l 1
 74 255 l 1
 265 446 l 1
 286 425 l 1
 286 425 290 417 297 408 c 0
 305 402 315 398 325 398 c 0
 330 398 335 399 339 401 c 2
 385 446 l 1
 406 425 l 1
 406 67 l 1
 475 136 l 1xd8
314 95 m 1
 314 325 l 1
 304 315 290 306 275 306 c 0
 260 306 247 315 237 325 c 2
 215 346 l 2
 214 347 213 348 211 350 c 2
 166 305 l 1
 166 145 l 1
 265 46 l 1
 314 95 l 1
EndSplineSet
EndChar
StartChar: rumrotunda
Encoding: 42845 42845 705
Width: 600
Flags: W
HStem: -196 21G<195 236.633> -46 92<415 491.695> 426 20G<125 169> 426 20G<125 169>
VStem: 374 92<68.1875 163>
LayerCount: 2
Back
SplineSet
360 225 m 1
 420 200 l 1
 420 200 420 139 420 100 c 27
 420 3 240 -150 240 -150 c 1025
540 50 m 17
 540 50 517 0 450 0 c 3
 337 0 300 60 300 60 c 9
 240 0 l 1
 120 180 l 25
 240 300 l 1
 120 400 l 1
 60 340 l 1049
EndSplineSet
Fore
SplineSet
565 96 m 1xe8
 586 75 l 1
 586 75 581 65 570 54 c 2
 500 -17 l 2
 486 -31 462 -46 425 -46 c 0
 405 -46 387 -44 372 -41 c 1
 360 -54 349 -65 338 -76 c 2
 268 -147 l 2
 239 -176 215 -196 215 -196 c 1
 194 -175 l 1
 265 -104 l 2
 265 -104 270 -99 280 -90 c 0
 297 -71 316 -50 331 -28 c 1
 309 -18 295 -7 286 2 c 2
 274 13 l 1
 215 -46 l 1
 194 -25 l 1
 74 155 l 1
 192 273 l 1
 95 354 l 2
 95 354 41 300 35 294 c 1
 14 315 l 1
 145 446 l 1
 265 346 l 1
 286 325 l 1
 166 205 l 1
 269 50 l 1
 325 106 l 1
 346 85 l 1
 346 85 346 84 347 83 c 0
 354 78 363 72 374 67 c 1
 374 70 374 72 374 75 c 2
 374 163 l 1
 335 179 l 1
 314 200 l 1
 385 271 l 1
 445 246 l 1
 466 225 l 1
 466 125 l 2
 466 102 456 75 440 48 c 1
 451 47 462 46 475 46 c 0
 497 46 514 51 528 59 c 1
 565 96 l 1xe8
EndSplineSet
EndChar
StartChar: lum
Encoding: 42866 42866 573
Width: 510
Flags: W
HStem: -196 21G<105 146.633> -46 92<325 401.695> 651 20G<95 134.512>
VStem: 74 92<65 560> 284 92<68.1875 163>
LayerCount: 2
Back
SplineSet
270 225 m 1
 330 200 l 1
 330 200 330 139 330 100 c 27
 330 3 150 -150 150 -150 c 1025
450 50 m 17
 450 50 427 0 360 0 c 3
 247 0 210 60 210 60 c 9
 150 0 l 25
 90 60 l 1025
90 625 m 25
 150 565 l 1049
120 595 m 9
 120 30 l 1049
EndSplineSet
Fore
SplineSet
44 600 m 1
 115 671 l 1
 155 630 l 1
 166 620 l 1
 196 590 l 1
 166 560 l 1
 166 55 l 1
 175 46 l 1
 235 106 l 1
 256 85 l 1
 256 85 256 84 257 83 c 0
 264 78 273 72 284 67 c 1
 284 70 284 72 284 75 c 2
 284 163 l 1
 245 179 l 1
 224 200 l 1
 295 271 l 1
 355 246 l 1
 376 225 l 1
 376 125 l 2
 376 102 366 75 350 48 c 1
 361 47 372 46 385 46 c 0
 407 46 424 51 438 59 c 1
 475 96 l 1
 496 75 l 1
 496 75 491 65 480 54 c 2
 410 -17 l 2
 396 -31 372 -46 335 -46 c 0
 315 -46 297 -44 282 -41 c 1
 270 -54 259 -65 248 -76 c 2
 178 -147 l 2
 149 -176 125 -196 125 -196 c 1
 104 -175 l 1
 175 -104 l 2
 175 -104 180 -99 190 -90 c 0
 207 -71 226 -50 241 -28 c 1
 219 -18 205 -7 196 2 c 2
 184 13 l 1
 125 -46 l 1
 44 35 l 1
 74 65 l 1
 74 570 l 1
 44 600 l 1
EndSplineSet
EndChar
StartChar: Rumsmallcap
Encoding: 42870 42870 858
Width: 780
Flags: W
HStem: -196 21G<375 416.633> -46 92<595 671.695> 426 20G<95 135 245 301> 426 20G<95 135 245 301>
VStem: 74 92<65 305> 554 92<68.1875 163>
LayerCount: 2
Back
SplineSet
540 225 m 1
 600 200 l 1
 600 200 600 139 600 100 c 27
 600 3 420 -150 420 -150 c 1025
720 50 m 17
 720 50 697 0 630 0 c 3
 517 0 480 60 480 60 c 9
 420 0 l 1
 420 0 399 85 360 125 c 24
 337 149 270 150 270 150 c 1025
90 60 m 25
 150 0 l 1049
90 400 m 25
 150 340 l 1049
120 370 m 9
 120 30 l 1025
240 120 m 1
 420 300 l 1
 240 400 l 1
 120 280 l 1049
EndSplineSet
Fore
SplineSet
215 74 m 1xec
 194 95 l 1
 224 125 l 1
 295 196 l 1
 368 269 l 1
 215 354 l 2
 215 354 170 309 166 305 c 2
 166 55 l 1
 196 25 l 1
 125 -46 l 1
 95 -16 l 1
 85 -5 l 1
 44 35 l 1
 74 65 l 1
 74 255 l 1
 74 345 l 1
 44 375 l 1
 115 446 l 1
 145 416 l 1
 166 395 l 1
 190 371 l 1
 265 446 l 1
 445 346 l 1
 466 325 l 1
 333 192 l 1
 352 189 373 183 384 172 c 0
 384 171 l 2
 405 150 l 2
 406 150 l 0
 429 126 446 86 456 57 c 1
 505 106 l 1
 526 85 l 1
 526 85 526 84 527 83 c 0
 534 78 543 72 554 67 c 1
 554 70 554 72 554 75 c 2
 554 163 l 1
 515 179 l 1
 494 200 l 1
 565 271 l 1
 625 246 l 1
 646 225 l 1
 646 125 l 2
 646 102 636 75 620 48 c 1
 631 47 642 46 655 46 c 0
 677 46 694 51 708 59 c 1
 745 96 l 1
 766 75 l 1
 766 75 761 65 750 54 c 2
 680 -17 l 2
 666 -31 642 -46 605 -46 c 0
 585 -46 567 -44 552 -41 c 1
 540 -54 529 -65 518 -76 c 2
 448 -147 l 2
 419 -176 395 -196 395 -196 c 1
 374 -175 l 1
 445 -104 l 2
 445 -104 450 -99 460 -90 c 0
 477 -71 496 -50 511 -28 c 1
 489 -18 475 -7 466 2 c 2
 454 13 l 1
 395 -46 l 1
 374 -25 l 1
 374 -25 357 45 326 87 c 1
 297 104 245 104 245 104 c 2
 215 74 l 1xec
EndSplineSet
EndChar
StartChar: thorn_longs
Encoding: 59188 59188 884
Width: 480
Flags: W
HStem: -246 92<30.8994 87.5> -196 92<-92.514 -32.4385> 426 20G<245 285> 426 20G<245 285> 604 32<408.669 420.188>
VStem: 104 92<-125 -27 87.6321 243 285 335 377 505> 314 92<145 300.42>
LayerCount: 2
Back
SplineSet
-150 -200 m 17
 -150 -200 -106 -150 -60 -150 c 8
 -35 -150 33 -200 60 -200 c 24
 86 -200 150 -150 150 -150 c 1
 150 530 l 1
 270 650 l 17
 270 650 300 590 360 590 c 24
 388 590 450 650 451 650 c 1033
60 0 m 1
 60 0 115 60 150 60 c 0
 185 60 240 0 240 0 c 9
 360 120 l 1
 360 280 l 25
 240 400 l 1
 120 280 l 1049
EndSplineSet
Fore
SplineSet
35 -46 m 1x8e
 14 -25 l 1
 14 -25 16 -22 21 -17 c 2
 92 54 l 2
 95 57 99 61 104 65 c 1
 104 243 l 1
 95 234 l 1
 74 255 l 1
 104 285 l 1
 104 505 l 1
 295 696 l 1
 316 675 l 1
 316 675 320 666 328 656 c 0
 343 645 362 636 385 636 c 0
 413 636 475 696 476 696 c 2
 497 675 l 1
 426 604 l 2
 425 604 363 544 335 544 c 0
 305 544 283 559 268 574 c 2
 247 595 l 2
 245 597 244 598 242 600 c 2
 196 555 l 1
 196 377 l 1
 265 446 l 1
 406 305 l 1
 406 145 l 1
 215 -46 l 1
 200 -30 l 2
 199 -29 197 -28 196 -27 c 2
 196 -125 l 1
 125 -196 l 1x6e
 125 -196 61 -246 35 -246 c 0x8e
 8 -246 -60 -196 -85 -196 c 0x4e
 -117 -196 -147 -220 -163 -235 c 2
 -175 -246 l 1x8e
 -196 -225 l 1
 -196 -225 -194 -222 -191 -219 c 2
 -120 -149 l 2
 -120 -148 l 0
 -106 -134 -71 -104 -35 -104 c 0x4e
 -10 -104 58 -154 85 -154 c 0
 90 -154 98 -152 104 -149 c 1
 104 9 l 1
 85 0 65 -17 51 -30 c 2
 35 -46 l 1x8e
196 100 m 1
 220 89 245 66 257 54 c 2
 265 46 l 1
 314 95 l 1
 314 255 l 2
 314 308 244 325 215 354 c 1
 196 335 l 1
 196 100 l 1
EndSplineSet
LCarets2: 1 240 
Ligature2: "Historic ligatures-1" thorn longs
EndChar
StartChar: q_v
Encoding: 60113 60113 967
Width: 720
Flags: W
HStem: -196 21G<315 355> 426 20G<245 285 364.556 405> 426 20G<245 285 364.556 405 630.5 651>
VStem: 74 92<145 255> 314 92<-125 3 145 325> 494 92<438.511 499.5> 554 92<145 345>
LayerCount: 2
Back
SplineSet
360 120 m 9
 240 0 l 25
 120 120 l 25
 120 280 l 25
 240 400 l 1
 240 400 264 352 300 352 c 24
 336 352 360 400 360 400 c 9
 360 -150 l 1049
360 120 m 1
 480 0 l 25
 600 120 l 1
 600 370 l 17
 600 370 540 423 540 472 c 8
 540 521 604 550 606 550 c 1033
EndSplineSet
Fore
SplineSet
314 53 m 1xda
 215 -46 l 1
 74 95 l 1
 74 255 l 1
 265 446 l 1
 286 425 l 1
 286 425 290 417 297 408 c 0
 305 402 315 398 325 398 c 0
 330 398 335 399 339 401 c 2
 385 446 l 1
 406 425 l 1
 406 145 l 1
 505 46 l 1
 554 95 l 1
 554 345 l 1xda
 546 353 l 2
 530 369 494 409 494 447 c 0
 494 467 504 484 517 497 c 2
 588 567 l 2
 607 585 630 596 631 596 c 2
 652 575 l 1
 588 510 l 2
 587 506 586 502 586 497 c 0xdc
 586 464 612 430 630 410 c 2
 646 395 l 1
 646 145 l 1
 455 -46 l 1
 406 3 l 1
 406 -125 l 1
 335 -196 l 1
 314 -175 l 1
 314 53 l 1xda
314 95 m 1
 314 325 l 1
 304 315 290 306 275 306 c 0
 260 306 247 315 237 325 c 2
 215 346 l 2
 214 347 213 348 211 350 c 2
 166 305 l 1
 166 145 l 1
 265 46 l 1
 314 95 l 1
EndSplineSet
LCarets2: 1 360 
Ligature2: "Ligatures-1" q v
EndChar
StartChar: longs_t_r
Encoding: 60330 60330 713
Width: 840
Flags: W
HStem: -246 92<30.8994 87.5> -196 92<-92.514 -32.4385> 354 92<325 344 436 545> 426 20G<725 765>
VStem: 104 92<-125 505> 344 92<57.9004 354 446 521.53> 554 92<65 83 125 305>
LayerCount: 2
Back
SplineSet
780 340 m 25
 720 400 l 25
 600 280 l 1049
570 60 m 25
 630 0 l 1049
600 370 m 9
 600 30 l 1025
-150 -200 m 1
 -150 -200 -106 -150 -60 -150 c 8
 -35 -150 33 -200 60 -200 c 24
 86 -200 150 -150 150 -150 c 1
 150 530 l 1
 270 650 l 1
 270 650 337 550 390 550 c 1
 390 60 l 1
 450 0 l 1
 570 120 l 1025
300 400 m 1
 570 400 l 25
 630 340 l 1025
EndSplineSet
Fore
SplineSet
254 375 m 1x2e
 325 446 l 1
 344 446 l 1
 344 509 l 1
 327 516 309 531 293 546 c 2
 272 567 l 2
 260 579 250 591 242 601 c 1
 196 555 l 1
 196 -125 l 1
 125 -196 l 1x6e
 125 -196 61 -246 35 -246 c 0x8e
 8 -246 -60 -196 -85 -196 c 0x4e
 -117 -196 -147 -220 -163 -235 c 2
 -175 -246 l 1x8e
 -196 -225 l 1
 -196 -225 -194 -222 -191 -219 c 2
 -120 -149 l 2
 -120 -148 l 0
 -106 -134 -71 -104 -35 -104 c 0x4e
 -10 -104 58 -154 85 -154 c 0
 90 -154 98 -152 104 -149 c 1
 104 505 l 1
 295 696 l 1
 316 675 l 1
 316 675 331 652 353 628 c 0
 373 610 395 596 415 596 c 1
 436 575 l 1
 436 446 l 1xae
 595 446 l 1
 625 416 l 1
 646 395 l 1
 670 371 l 1
 745 446 l 1x1e
 826 365 l 1
 755 294 l 1
 695 354 l 1
 646 305 l 1
 646 55 l 1
 676 25 l 1
 605 -46 l 1
 575 -16 l 1
 554 5 l 1
 524 35 l 1
 554 65 l 1
 554 83 l 1
 425 -46 l 1
 344 35 l 1
 344 354 l 1
 275 354 l 1
 254 375 l 1x2e
436 354 m 1
 436 85 l 2
 436 65 464 57 475 46 c 1
 554 125 l 1
 554 255 l 1
 554 345 l 1
 545 354 l 1
 436 354 l 1
EndSplineSet
LCarets2: 2 360 600 
Ligature2: "Ligatures-1" longs t r
EndChar
StartChar: h_longs
Encoding: 60333 60333 515
Width: 510
Flags: W
HStem: -246 92<30.8994 87.5> -196 92<-92.514 -32.4385> 426 20G<305 345> 426 20G<305 345> 604 32<408.669 420.188>
VStem: 104 92<-125 275 317 505> 344 92<65 321.97>
LayerCount: 2
Back
SplineSet
360 60 m 25
 420 0 l 1049
390 30 m 25
 390 310 l 25
 300 400 l 1
 150 250 l 1049
-150 -200 m 17
 -150 -200 -106 -150 -60 -150 c 8
 -35 -150 33 -200 60 -200 c 24
 86 -200 150 -150 150 -150 c 1
 150 530 l 1
 270 650 l 17
 270 650 300 590 360 590 c 24
 388 590 450 650 451 650 c 1033
EndSplineSet
Fore
SplineSet
-175 -246 m 1x8e
 -196 -225 l 1
 -196 -225 -194 -222 -191 -219 c 2
 -120 -149 l 2
 -120 -148 l 0
 -106 -134 -71 -104 -35 -104 c 0x4e
 -10 -104 58 -154 85 -154 c 0x8e
 90 -154 98 -152 104 -149 c 1
 104 225 l 1
 104 505 l 1
 295 696 l 1
 316 675 l 1
 316 675 320 666 328 656 c 0
 343 645 362 636 385 636 c 0
 413 636 475 696 476 696 c 2
 497 675 l 1
 426 604 l 2
 425 604 363 544 335 544 c 0
 305 544 283 559 268 574 c 2
 247 595 l 2
 245 597 244 598 242 600 c 2
 196 555 l 1
 196 317 l 1
 325 446 l 1
 436 335 l 1
 436 55 l 1
 466 25 l 1
 395 -46 l 1
 365 -16 l 1
 344 5 l 1
 314 35 l 1
 344 65 l 1
 344 285 l 2
 344 322 295 334 275 354 c 1
 196 275 l 1
 196 -125 l 1
 125 -196 l 1x6e
 125 -196 61 -246 35 -246 c 0x8e
 8 -246 -60 -196 -85 -196 c 0x4e
 -117 -196 -147 -220 -163 -235 c 2
 -175 -246 l 1x8e
EndSplineSet
LCarets2: 1 270 
Ligature2: "Historic ligatures-1" h longs
EndChar
StartChar: a_r
Encoding: 61354 61354 343
Width: 600
GlyphClass: 3
Flags: W
HStem: 179 92<237.369 314> 426 20G<215 355 485 525> 426 20G<215 355 485 525>
VStem: 314 92<55 83 125 179 271 305>
LayerCount: 2
Back
SplineSet
150 220 m 17
 120 310 l 1
 210 400 l 1
 360 375 l 1
 360 150 l 9
 210 0 l 1
 120 90 l 1
 120 160 l 1
 210 250 l 1
 210 250 232.928594192 225 300 225 c 3
 360 225 l 1033
450 60 m 25
 390 0 l 1
 360 30 l 1
 360 375 l 1025
540 340 m 25
 480 400 l 25
 360 280 l 1049
EndSplineSet
Fore
SplineSet
586 365 m 1xd0
 515 294 l 1
 455 354 l 1
 406 305 l 1
 406 175 l 1
 406 55 l 1
 415 46 l 1
 475 106 l 1
 496 85 l 1
 365 -46 l 1
 314 5 l 1
 314 83 l 1
 185 -46 l 1
 74 65 l 1
 74 135 l 1
 119 180 l 1
 104 195 l 1
 74 285 l 1
 235 446 l 1
 385 421 l 1
 406 400 l 1
 406 347 l 1
 505 446 l 1
 586 365 l 1xd0
193 254 m 1
 235 296 l 1
 235 295 l 2
 239 291 261 273 314 271 c 1
 314 333 l 1
 185 354 l 1
 166 335 l 1
 193 254 l 1
314 125 m 1
 314 179 l 1
 275 179 l 2
 212 179 189 201 186 204 c 2
 185 204 l 1
 166 185 l 1
 166 115 l 1
 235 46 l 1
 314 125 l 1
EndSplineSet
LCarets2: 1 360 
Ligature2: "Historic ligatures-1" a r
EndChar
StartChar: a_Rsmallcap
Encoding: 61355 61355 857
Width: 780
Flags: W
HStem: 179 92<237.369 314> 426 20G<215 355 485 541> 426 20G<215 355 485 541>
VStem: 314 92<46.1399 83 125 179 271 305>
LayerCount: 2
Back
SplineSet
720 60 m 25
 660 0 l 1
 660 0 639 85 600 125 c 24
 577 149 510 150 510 150 c 1025
480 120 m 1
 660 300 l 1
 480 400 l 1
 360 280 l 1049
150 220 m 17
 120 310 l 1
 210 400 l 1
 360 375 l 1
 360 30 l 1
 390 0 l 1
 450 60 l 1049
360 150 m 25
 210 0 l 1
 120 90 l 1
 120 160 l 1
 210 250 l 1
 210 250 232.928594192 225 300 225 c 3
 360 225 l 1033
EndSplineSet
Fore
SplineSet
745 106 m 1xd0
 766 85 l 1
 635 -46 l 1
 614 -25 l 1
 614 -25 597 45 566 87 c 1
 537 104 485 104 485 104 c 2
 481 100 l 1
 496 85 l 1
 365 -46 l 1
 314 5 l 1
 314 83 l 1
 185 -46 l 1
 74 65 l 1
 74 135 l 1
 119 180 l 1
 104 195 l 1
 74 285 l 1
 235 446 l 1
 385 421 l 1
 406 400 l 1
 406 347 l 1
 505 446 l 1
 685 346 l 1
 706 325 l 1
 573 192 l 1
 592 189 613 183 624 172 c 0
 624 171 l 2
 645 150 l 2
 646 150 l 0
 669 126 686 86 696 57 c 1
 745 106 l 1xd0
193 254 m 1
 235 296 l 1
 235 295 l 2
 239 291 261 273 314 271 c 1
 314 333 l 1
 185 354 l 1
 166 335 l 1
 193 254 l 1
314 179 m 1
 275 179 l 2
 212 179 189 201 186 204 c 2
 185 204 l 1
 166 185 l 1
 166 115 l 1
 235 46 l 1
 314 125 l 1
 314 179 l 1
406 175 m 1
 406 55 l 2
 406 51 412 49 415 46 c 2
 449 80 l 1
 434 95 l 1
 608 269 l 1
 455 354 l 2
 455 354 410 309 406 305 c 2
 406 250 l 1
 406 175 l 1
EndSplineSet
LCarets2: 1 360 
Ligature2: "Historic ligatures-1" a Rsmallcap
EndChar
StartChar: n.alt
Encoding: 61992 61992 598
Width: 480
Flags: W
HStem: -196 21G<255 295> 426 20G<95 135 275 315> 426 20G<95 135 275 315>
VStem: 74 92<65 275 317 335> 314 92<-65 321.97>
AnchorPoint: "abvmark" 240 500 basechar 0
LayerCount: 2
Back
SplineSet
90 60 m 25
 150 0 l 1049
150 340 m 25
 90 400 l 1049
120 370 m 9
 120 30 l 1025
300 -150 m 25
 360 -90 l 1
 360 310 l 9
 270 400 l 1
 120 250 l 1049
EndSplineSet
Fore
SplineSet
275 -196 m 1xd8
 254 -175 l 1
 314 -115 l 1
 314 285 l 2
 314 322 265 334 245 354 c 1
 166 275 l 1
 166 55 l 1
 196 25 l 1
 125 -46 l 1
 44 35 l 1
 74 65 l 1
 74 225 l 1
 74 345 l 1
 44 375 l 1
 115 446 l 1
 145 416 l 1
 166 395 l 1
 196 365 l 1
 166 335 l 1
 166 317 l 1
 295 446 l 1
 406 335 l 1
 406 -65 l 1
 275 -196 l 1xd8
EndSplineSet
EndChar
StartChar: longs_longs_k
Encoding: 62718 62718 711
Width: 1020
Flags: W
HStem: -246 92<30.8994 87.5 256.961 327.806> -196 92<-92.514 -32.4385> 451 20G<875 915>
VStem: 104 92<-115.853 505> 344 92<-125 504.446> 614 92<65 198 259 557.012> 854 92<65 167>
LayerCount: 2
Back
SplineSet
870 425 m 25
 930 365 l 1049
660 200 m 1
 900 350 l 9
 900 395 l 1049
780 275 m 1
 900 200 l 1
 900 30 l 1025
870 60 m 25
 930 0 l 1049
630 60 m 25
 690 0 l 1049
660 30 m 1
 660 600 l 1
 559 600 510 650 510 650 c 9
 390 530 l 1
 390 -150 l 1
 390 -150 334 -200 300 -200 c 0
 262 -200 187 -150 150 -150 c 1025
-150 -200 m 17
 -150 -200 -106 -150 -60 -150 c 8
 -35 -150 33 -200 60 -200 c 24
 86 -200 150 -150 150 -150 c 1
 150 530 l 1
 270 650 l 1
 270 650 337 530 390 530 c 1025
EndSplineSet
Fore
SplineSet
-175 -246 m 1xbe
 -196 -225 l 1
 -196 -225 -194 -222 -191 -219 c 2
 -120 -149 l 2
 -120 -148 l 0
 -106 -134 -71 -104 -35 -104 c 0x7e
 -10 -104 58 -154 85 -154 c 0xbe
 90 -154 98 -152 104 -149 c 1
 104 505 l 1
 295 696 l 1
 316 675 l 1
 316 675 341 631 371 597 c 0
 386 584 401 576 415 576 c 1
 535 696 l 2
 538 693 587 646 685 646 c 1
 706 625 l 1
 706 259 l 1
 854 352 l 1
 854 370 l 1
 824 400 l 1
 895 471 l 1
 925 441 l 1
 976 390 l 1
 905 319 l 1
 898 327 l 1
 875 304 l 1
 854 290 l 1
 925 246 l 1
 946 225 l 1
 946 55 l 1
 976 25 l 1
 905 -46 l 1
 875 -16 l 1
 854 5 l 1
 824 35 l 1
 854 65 l 1
 854 167 l 1
 755 229 l 1
 706 198 l 1
 706 55 l 1
 736 25 l 1
 665 -46 l 1
 635 -16 l 1
 614 5 l 1
 584 35 l 1
 614 65 l 1
 614 175 l 1
 614 555 l 1
 529 561 487 602 485 604 c 0
 485 604 440 559 436 555 c 2
 436 -125 l 1
 365 -196 l 1x7e
 365 -196 309 -246 275 -246 c 0xbe
 237 -246 162 -196 125 -196 c 1x7e
 125 -196 61 -246 35 -246 c 0xbe
 8 -246 -60 -196 -85 -196 c 0x7e
 -117 -196 -147 -220 -163 -235 c 2
 -175 -246 l 1xbe
344 490 m 1
 333 495 322 504 311 515 c 0
 310 515 l 1
 289 536 l 2
 270 555 252 580 240 599 c 1
 196 555 l 1
 196 -108 l 1
 236 -120 293 -154 325 -154 c 0xbe
 331 -154 337 -153 344 -150 c 1
 344 490 l 1
EndSplineSet
LCarets2: 2 360 600 
Ligature2: "Ligatures-1" longs longs k
EndChar
StartChar: w.alt
Encoding: 65542 -1 784
Width: 720
Flags: W
HStem: 426 20G<95 135 335 375 545 585> 426 20G<95 135 335 375 545 585>
VStem: 74 92<99.5798 335> 314 92<99.5798 335> 554 92<145 342.1>
CounterMasks: 1 38
AnchorPoint: "abvmark" 360 500 basechar 0
AnchorPoint: "blwmark" 360 0 basechar 0
LayerCount: 2
Back
SplineSet
390 340 m 25
 330 400 l 1049
360 370 m 25
 360 120 l 1
 480 0 l 25
 600 120 l 1
 600 340 l 25
 540 400 l 1049
150 340 m 25
 90 400 l 1049
120 370 m 25
 120 120 l 1
 240 0 l 25
 360 120 l 1025
EndSplineSet
Fore
SplineSet
145 416 m 1xb8
 196 365 l 1
 166 335 l 1
 166 145 l 2
 166 92 236 75 265 46 c 1
 314 95 l 1
 314 345 l 1
 284 375 l 1
 355 446 l 1
 436 365 l 1
 406 335 l 1
 406 145 l 2
 406 92 476 75 505 46 c 1
 554 95 l 1
 554 315 l 2
 554 335 526 343 515 354 c 2
 494 375 l 1
 565 446 l 1
 646 365 l 1
 646 145 l 1
 455 -46 l 1
 335 74 l 1
 215 -46 l 1
 74 95 l 1
 74 345 l 1
 44 375 l 1
 115 446 l 1
 145 416 l 1xb8
EndSplineSet
EndChar
